<svg width="80" height="80" viewBox="0 0 80 80" fill="none" xmlns="http://www.w3.org/2000/svg">
  <rect width="80" height="80" fill="#f3f4f6"/>
  <path d="M40 20C28.9543 20 20 28.9543 20 40C20 51.0457 28.9543 60 40 60C51.0457 60 60 51.0457 60 40C60 28.9543 51.0457 20 40 20ZM40 55C32.268 55 26 48.732 26 41C26 33.268 32.268 27 40 27C47.732 27 54 33.268 54 41C54 48.732 47.732 55 40 55Z" fill="#9ca3af"/>
  <path d="M35 35H45V45H35V35Z" fill="#9ca3af"/>
  <circle cx="40" cy="40" r="2" fill="#6b7280"/>
</svg>
